<svg width="244" height="79" xmlns="http://www.w3.org/2000/svg"><g fill="none" fill-rule="evenodd"><g><circle fill="#51C0A9" opacity=".5" transform="matrix(-1 0 0 1 123 0)" cx="61.5" cy="70.5" r="3.5"/><circle fill="#51C0A9" transform="matrix(-1 0 0 1 7 0)" cx="3.5" cy="77.5" r="1.5"/><circle fill="#51C0A9" opacity=".7" transform="matrix(-1 0 0 1 65 0)" cx="32.5" cy="71.5" r="1.5"/><circle fill="#51C0A9" opacity=".7" transform="matrix(-1 0 0 1 451 0)" cx="225.5" cy="63.5" r="1.5"/><circle fill="#51C0A9" opacity=".7" transform="matrix(-1 0 0 1 59 0)" cx="29.5" cy="24.5" r="1.5"/><circle fill="#51C0A9" opacity=".4" transform="matrix(-1 0 0 1 39 0)" cx="19.5" cy="1.5" r="1.5"/><circle stroke="#51C0A9" stroke-width=".5" transform="matrix(-1 0 0 1 93 0)" cx="46.5" cy="11.5" r="3.25"/><circle stroke="#51C0A9" stroke-width=".5" opacity=".7" transform="matrix(-1 0 0 1 7 0)" cx="3.5" cy="33.5" r="3.25"/><circle stroke="#51C0A9" stroke-width=".5" opacity=".5" transform="matrix(-1 0 0 1 35 0)" cx="17.5" cy="60.5" r="3.25"/><circle stroke="#51C0A9" stroke-width=".5" opacity=".5" transform="matrix(-1 0 0 1 425 0)" cx="212.5" cy="48.5" r="3.25"/><circle stroke="#51C0A9" stroke-width=".5" opacity=".5" transform="matrix(-1 0 0 1 481 0)" cx="240.5" cy="48.5" r="3.25"/></g><g transform="translate(20 5)"><circle fill="#51C0A9" transform="matrix(-1 0 0 1 264 0)" cx="132" cy="64" r="2"/><circle fill="#51C0A9" opacity=".7" transform="matrix(-1 0 0 1 360 0)" cx="180" cy="72" r="2"/><circle fill="#51C0A9" opacity=".7" transform="matrix(-1 0 0 1 420 0)" cx="210" cy="24" r="2"/><circle fill="#51C0A9" opacity=".7" transform="matrix(-1 0 0 1 2 0)" cx="1" cy="37" r="1"/><circle fill="#51C0A9" opacity=".4" transform="matrix(-1 0 0 1 326 0)" cx="163" cy="2" r="2"/><circle stroke="#51C0A9" stroke-width=".5" transform="matrix(-1 0 0 1 382 0)" cx="191" cy="10" r="3.75"/></g><g transform="translate(83 4)"><circle fill="#51C0A9" opacity=".7" transform="matrix(-1 0 0 1 52 0)" cx="26" cy="73" r="2"/><circle fill="#51C0A9" opacity=".4" transform="matrix(-1 0 0 1 22 0)" cx="11" cy="2" r="2"/><circle stroke="#51C0A9" stroke-width=".5" transform="matrix(-1 0 0 1 106 0)" cx="53" cy="7" r="2.75"/><circle stroke="#51C0A9" stroke-width=".5" opacity=".5" transform="matrix(-1 0 0 1 6 0)" cx="3" cy="72" r="2.75"/><circle stroke="#51C0A9" stroke-width=".5" opacity=".5" transform="matrix(-1 0 0 1 216 0)" cx="108" cy="64" r="2.75"/></g></g></svg>